<?xml version="1.0" encoding="utf-8"?><svg viewBox="0 0 502.66 502.66" xmlns="http://www.w3.org/2000/svg" xmlns:xlink="http://www.w3.org/1999/xlink"><style>:root>svg{display:none}:root>svg:target{display:block}</style><svg viewBox="0 0 11 7" id="arrow" xmlns="http://www.w3.org/2000/svg"><path fill-rule="evenodd" clip-rule="evenodd" d="M.293 1.293a1 1 0 011.414 0L5 4.586l3.293-3.293a1 1 0 111.414 1.414l-4 4a1 1 0 01-1.414 0l-4-4a1 1 0 010-1.414z"/></svg><svg viewBox="0 0 32 32" id="check-mark" xmlns="http://www.w3.org/2000/svg"><defs><style>.bcls-1{fill:none;stroke:#000;stroke-linecap:round;stroke-linejoin:round;stroke-width:2px}</style></defs><path class="bcls-1" d="M3 16l9 9m0 0L29 7" id="bcheckmark"/></svg><svg viewBox="0 0 14 14" id="copy" xmlns="http://www.w3.org/2000/svg"><g clip-path="url(#ca)" stroke-width=".583" stroke-linecap="round" stroke-linejoin="round"><path d="M11.667 5.25h-5.25c-.645 0-1.167.522-1.167 1.167v5.25c0 .644.522 1.166 1.167 1.166h5.25c.644 0 1.166-.522 1.166-1.166v-5.25c0-.645-.522-1.167-1.166-1.167z"/><path d="M2.917 8.75h-.584a1.167 1.167 0 01-1.166-1.167v-5.25a1.167 1.167 0 011.166-1.166h5.25A1.167 1.167 0 018.75 2.333v.584"/></g><defs><clipPath id="ca"><path d="M0 0h14v14H0z"/></clipPath></defs></svg><svg viewBox="0 0 20 20" id="dark" xmlns="http://www.w3.org/2000/svg"><path fill-rule="evenodd" clip-rule="evenodd" d="M7.353.94a1 1 0 01.22 1.08 8 8 0 0010.408 10.407 1 1 0 011.301 1.3A10.003 10.003 0 0110 20C4.477 20 0 15.523 0 10 0 5.793 2.598 2.195 6.273.718a1 1 0 011.08.22V.94z"/></svg><svg viewBox="0 0 17 15" id="decor-elem-img-1" xmlns="http://www.w3.org/2000/svg"><path d="M2.375 4h12.25-12.25zm0 0a1.75 1.75 0 110-3.5h12.25a1.75 1.75 0 010 3.5H2.375zm0 0v8.75a1.75 1.75 0 001.75 1.75h8.75a1.75 1.75 0 001.75-1.75V4H2.375zM6.75 7.5h3.5-3.5z"/></svg><svg viewBox="0 0 12 12" id="decor-elem-img-2" xmlns="http://www.w3.org/2000/svg"><path d="M8 2.667A1.333 1.333 0 019.333 4L8 2.667zM12 4a4 4 0 01-5.162 3.829L5.333 9.333H4v1.334H2.667V12h-2A.666.666 0 010 11.333V9.61c0-.176.07-.346.195-.471l3.976-3.976A4 4 0 1112 4z"/></svg><svg viewBox="0 0 12 12" id="decor-elem-img-3" xmlns="http://www.w3.org/2000/svg"><path d="M.667 2.667v6.666C.667 10.807 3.055 12 6 12c2.945 0 5.333-1.193 5.333-2.667V2.667H.667zm0 0C.667 4.14 3.055 5.333 6 5.333c2.945 0 5.333-1.193 5.333-2.666H.667zm0 0C.667 1.193 3.055 0 6 0c2.945 0 5.333 1.193 5.333 2.667H.667zM11.333 6c0 1.473-2.388 2.667-5.333 2.667C3.055 8.667.667 7.473.667 6"/></svg><svg viewBox="0 0 21 21" id="decor-elem-img-4" xmlns="http://www.w3.org/2000/svg"><path d="M10.5 17.5V8.75m5.25 8.75v-14m-10.5 14V14"/></svg><svg viewBox="0 0 18 18" id="export" xmlns="http://www.w3.org/2000/svg"><path d="M5.25 12.75l7.5-7.5m-7.5 0h7.5v7.5"/></svg><svg viewBox="0 0 20 20" id="git" xmlns="http://www.w3.org/2000/svg"><path fill-rule="evenodd" clip-rule="evenodd" d="M10 0C4.477 0 0 4.484 0 10.017c0 4.425 2.865 8.18 6.839 9.504.5.092.682-.217.682-.483 0-.237-.008-.868-.013-1.703-2.782.605-3.369-1.343-3.369-1.343-.454-1.158-1.11-1.466-1.11-1.466-.908-.62.069-.608.069-.608 1.003.07 1.531 1.032 1.531 1.032.892 1.53 2.341 1.088 2.91.832.092-.647.35-1.088.636-1.338-2.22-.253-4.555-1.113-4.555-4.951 0-1.093.39-1.988 1.029-2.688-.103-.253-.446-1.272.098-2.65 0 0 .84-.27 2.75 1.026A9.564 9.564 0 0110 4.844a9.59 9.59 0 012.504.337c1.909-1.296 2.747-1.027 2.747-1.027.546 1.379.202 2.398.1 2.651.64.7 1.028 1.595 1.028 2.688 0 3.848-2.339 4.695-4.566 4.943.359.309.678.92.678 1.855 0 1.338-.012 2.419-.012 2.747 0 .268.18.58.688.482A10.02 10.02 0 0020 10.017C20 4.484 15.522 0 10 0z"/></svg><svg viewBox="0 0 16 17" id="git-logo" xmlns="http://www.w3.org/2000/svg"><path d="M11 16.5v-2.902a2.529 2.529 0 00-.705-1.958c2.355-.263 4.83-1.155 4.83-5.25A4.08 4.08 0 0014 3.577 3.803 3.803 0 0013.932.75S13.047.487 11 1.86a10.035 10.035 0 00-5.25 0C3.703.487 2.817.75 2.817.75a3.802 3.802 0 00-.067 2.827 4.08 4.08 0 00-1.125 2.835c0 4.065 2.475 4.958 4.83 5.25a2.527 2.527 0 00-.705 1.935V16.5m0-2.25C2 15.375 2 12.375.5 12l5.25 2.25z"/></svg><svg viewBox="0 0 502.664 502.664" id="icon" xmlns="http://www.w3.org/2000/svg"><path d="M153.821 358.226L0 274.337v-46.463l153.821-83.414v54.574L46.636 250.523l107.185 53.431v54.272zm26.273 29.358L282.103 115.08h32.227L212.084 387.584h-31.99zm168.749-29.358v-54.272l107.164-52.999-107.164-52.59v-53.927l153.821 83.522v46.183l-153.821 84.083z"/></svg><svg viewBox="0 0 28 28" id="light" xmlns="http://www.w3.org/2000/svg"><path fill-rule="evenodd" clip-rule="evenodd" d="M14 0a1.4 1.4 0 011.4 1.4v1.4a1.4 1.4 0 01-2.8 0V1.4A1.4 1.4 0 0114 0zM4.1 4.1a1.4 1.4 0 011.98 0l.99.99a1.4 1.4 0 11-1.98 1.98l-.99-.99a1.4 1.4 0 010-1.98zm19.8 0a1.4 1.4 0 010 1.98l-.99.99a1.4 1.4 0 01-1.98-1.98l.99-.99a1.4 1.4 0 011.98 0zM7 14a7 7 0 1114 0 7 7 0 01-14 0zm-7 0a1.4 1.4 0 011.4-1.4h1.4a1.4 1.4 0 110 2.8H1.4A1.4 1.4 0 010 14zm23.8 0a1.4 1.4 0 011.4-1.4h1.4a1.4 1.4 0 110 2.8h-1.4a1.4 1.4 0 01-1.4-1.4zm-2.87 6.93a1.399 1.399 0 011.98 0l.99.99a1.401 1.401 0 01-1.526 2.283 1.401 1.401 0 01-.454-.303l-.99-.99a1.399 1.399 0 010-1.98zm-15.84 0a1.4 1.4 0 111.98 1.98l-.99.99a1.4 1.4 0 01-1.98-1.98l.99-.99zM14 23.8a1.4 1.4 0 011.4 1.4v1.4a1.4 1.4 0 11-2.8 0v-1.4a1.4 1.4 0 011.4-1.4z"/><defs><linearGradient id="ma" x1="0" y1="0" x2="28" y2="28" gradientUnits="userSpaceOnUse"><stop stop-color="#BBB"/><stop offset="1" stop-color="#BBB"/></linearGradient></defs></svg><svg viewBox="0 0 20 18" id="tw" xmlns="http://www.w3.org/2000/svg"><path d="M6.29 17.251c7.547 0 11.675-6.253 11.675-11.675 0-.178 0-.355-.012-.53A8.349 8.349 0 0020 2.92a8.19 8.19 0 01-2.357.646 4.118 4.118 0 001.804-2.27 8.224 8.224 0 01-2.605.996 4.107 4.107 0 00-6.993 3.743 11.65 11.65 0 01-8.457-4.287 4.106 4.106 0 001.27 5.477A4.072 4.072 0 01.8 6.713v.052a4.105 4.105 0 003.292 4.022 4.096 4.096 0 01-1.853.07 4.108 4.108 0 003.834 2.85A8.234 8.234 0 010 15.407a11.616 11.616 0 006.29 1.84"/></svg></svg>